<svg xmlns="http://www.w3.org/2000/svg" viewBox="0 0 1200 675" width="1200" height="675" role="img" aria-labelledby="posterTitle">
  <title id="posterTitle">Ảnh đại diện video Thảm Massage trị liệu JM 365 - chỗ đặt video thật</title>
  <defs>
    <linearGradient id="bg" x1="0" y1="0" x2="1" y2="1">
      <stop offset="0%" stop-color="#f4c430"/>
      <stop offset="100%" stop-color="#d9a017"/>
    </linearGradient>
  </defs>
  <rect width="1200" height="675" fill="url(#bg)"/>
  <g opacity="0.15">
    <circle cx="150" cy="120" r="90" fill="#ffffff"/>
    <circle cx="1080" cy="560" r="130" fill="#ffffff"/>
  </g>
  <rect x="260" y="230" width="680" height="215" rx="28" fill="#2b2109" opacity="0.85"/>
  <g fill="#f4c430">
    <circle cx="330" cy="290" r="10"/>
    <circle cx="380" cy="290" r="10"/>
    <circle cx="430" cy="290" r="10"/>
    <circle cx="480" cy="290" r="10"/>
    <circle cx="530" cy="290" r="10"/>
    <circle cx="580" cy="290" r="10"/>
    <circle cx="630" cy="290" r="10"/>
    <circle cx="680" cy="290" r="10"/>
    <circle cx="730" cy="290" r="10"/>
    <circle cx="780" cy="290" r="10"/>
    <circle cx="830" cy="290" r="10"/>
    <circle cx="880" cy="290" r="10"/>
    <circle cx="355" cy="335" r="10"/>
    <circle cx="405" cy="335" r="10"/>
    <circle cx="455" cy="335" r="10"/>
    <circle cx="505" cy="335" r="10"/>
    <circle cx="555" cy="335" r="10"/>
    <circle cx="605" cy="335" r="10"/>
    <circle cx="655" cy="335" r="10"/>
    <circle cx="705" cy="335" r="10"/>
    <circle cx="755" cy="335" r="10"/>
    <circle cx="805" cy="335" r="10"/>
    <circle cx="855" cy="335" r="10"/>
  </g>
  <circle cx="600" cy="400" r="46" fill="#ffffff" opacity="0.92"/>
  <path d="M588 380 L622 400 L588 420 Z" fill="#c8402a"/>
  <text x="600" y="500" text-anchor="middle" font-family="Arial, sans-serif" font-size="26" fill="#2b2109" font-weight="bold">THẢM MASSAGE TRỊ LIỆU JM 365</text>
  <text x="600" y="535" text-anchor="middle" font-family="Arial, sans-serif" font-size="16" fill="#2b2109">(Ảnh minh hoạ - thay bằng video/ảnh thật tại public/assets)</text>
</svg>
